<svg width="3478" height="3966" viewBox="0 0 3478 3966" fill="none" xmlns="http://www.w3.org/2000/svg">
<path d="M1742.64 3593.05C2122.75 3386.65 2499.47 3173.85 2879.63 2967.71" stroke="black" stroke-width="15" stroke-linecap="round"/>
<path d="M3136 2854L3142.16 2860.24" stroke="black" stroke-width="25" stroke-linecap="round"/>
<path d="M1515 2200C1531 2162.5 1536.17 2156.83 1561.5 2125.5C1608 2068 1698.83 2052.08 1723.02 2139.15C1746.78 2224.69 1725.81 2325.95 1698.33 2401.54" stroke="black" stroke-width="15" stroke-linecap="round"/>
<path d="M534.5 3958C600.376 3617.33 640.403 3336.71 645.036 2988.78C649.864 2626.11 629.923 2222.62 474.036 1886.98C420.465 1771.64 306.383 1624.89 171.289 1748.91C15.145 1892.26 -57.4538 2220.43 82.8559 2396.82C209.388 2555.89 446.535 2553.04 625.635 2571.43C722.22 2581.35 914.979 2570.71 811.073 2718.97C709.937 2863.27 569.367 2968.69 490.73 3131.35C460.434 3194.02 423.007 3281.44 478.096 3347.02C534.477 3414.14 639.673 3399.67 710.458 3390.33C902.061 3365.07 1093.22 3288.53 1263.16 3199.03C1359.41 3148.34 1495.72 3074.06 1548.76 2970.73C1573.38 2922.78 1573.27 2827.55 1498.68 2818.23C1419.36 2808.31 1406.45 2917.87 1436.87 2965.32C1499.57 3063.12 1580.48 2940.67 1606.07 2890.42C1620.49 2862.09 1628.09 2830.78 1639.45 2801.08C1655.86 2758.2 1649.06 2738.64 1675.1 2774.92C1710.64 2824.42 1756.82 2898.77 1810.9 2803.79C1849.56 2735.91 1856.91 2636.77 1867.75 2562.86C1869.26 2552.56 1864.1 2450.12 1895.73 2507.81C1938.22 2585.31 1961.2 2697.56 2073.5 2698.21C2142.88 2698.62 2216.38 2636.95 2272.92 2603.46C2490.27 2474.73 2743.87 2416.53 2945.64 2256.05C3019.33 2197.44 3095.18 2137.91 3150.93 2062.04C3312.01 1842.83 3419.22 1541.9 3452.32 1276.07C3501.74 879.232 3464.76 349.261 3100.85 95.312C2855.29 -76.0496 2527.26 14.4697 2395.64 282.555C2289.09 499.597 2293.32 844.265 2320.75 1067.62C2399.59 1709.65 2449.13 1461.6 2585.14 2108.96" stroke="black" stroke-width="15" stroke-linecap="round"/>
</svg>
